# xmcd CD database file
#
# Track frame offsets:
#	150
#	12380
#	25027
#	37372
#	49245
#	61287
#	73982
#	88477
#	102325
#	114520
#	128130
#	142057
#	155215
#	168740
#	181820
#	194730
#	208162
#	222927
#	235777
#	249722
#	264090
#	278547
#
# Disc length: 3905 seconds
#
# Revision: 0
# Processed by: cddbd v1.4PL0 Copyright (c) Steve Scherf et al.
# Submitted via: CDex 1.50beta10
#
DISCID=5b0f3f16
DTITLE=Putney Dandridge - Timeless Historical Presents Putney Daindridge
DYEAR=1936
DGENRE=Jazz
TTITLE0=You're a Heavenly Thing
TTITLE1=Mr. Bluebird
TTITLE2=Nagasaki
TTITLE3=Chasing Shadows
TTITLE4=When I Grow Too Old To Dream
TTITLE5=I'm In The Mood For Love
TTITLE6=Isn't This A Lovely Day
TTITLE7=Cheek To Cheek
TTITLE8=That's What You Think
TTITLE9=Shine
TTITLE10=I'm On A See-Saw
TTITLE11=Eeny Meeny Miney Mo
TTITLE12=Double Trouble
TTITLE13=Santa Claus Came In The Spring
TTITLE14=You Hit The Spot
TTITLE15=No Other One
TTITLE16=A Little Bit Independent
TTITLE17=You Took My Breath Away
TTITLE18=Sweet Violets
TTITLE19=Dinner For One Please, James
TTITLE20=A Bearutiful Lady In Blue
TTITLE21=Honeysuckle Rose
EXTD=YEAR: 1936
EXTT0=
EXTT1=
EXTT2=
EXTT3=
EXTT4=
EXTT5=
EXTT6=
EXTT7=
EXTT8=
EXTT9=
EXTT10=
EXTT11=
EXTT12=
EXTT13=
EXTT14=
EXTT15=
EXTT16=
EXTT17=
EXTT18=
EXTT19=
EXTT20=
EXTT21=
PLAYORDER=
